<?xml version="1.0" encoding="UTF-8"?>
<!DOCTYPE svg PUBLIC "-//W3C//DTD SVG 1.1//EN" "http://www.w3.org/Graphics/SVG/1.1/DTD/svg11.dtd">
<svg xmlns="http://www.w3.org/2000/svg" version="1.1" width="64px" height="64px" style="shape-rendering:geometricPrecision; text-rendering:geometricPrecision; image-rendering:optimizeQuality; fill-rule:evenodd; clip-rule:evenodd" xmlns:xlink="http://www.w3.org/1999/xlink">
<g><path style="opacity:1" fill="#b71716" d="M 48.5,10.5 C 47.3991,9.40168 46.0657,9.23502 44.5,10C 43.7476,10.6708 43.4142,11.5041 43.5,12.5C 39.448,12.1118 35.448,11.4451 31.5,10.5C 30.5,11.1667 29.5,11.8333 28.5,12.5C 27.8076,11.9747 27.3076,11.3081 27,10.5C 24.6985,11.8672 22.1985,12.5339 19.5,12.5C 19.5858,11.5041 19.2524,10.6708 18.5,10C 16.9343,9.23502 15.6009,9.40168 14.5,10.5C 13.9569,10.44 13.6236,10.1067 13.5,9.5C 16.2815,8.04797 18.7815,8.3813 21,10.5C 23.6762,1.91319 29.1762,-0.586812 37.5,3C 39.8936,4.95217 41.3936,7.45217 42,10.5C 44.2185,8.3813 46.7185,8.04797 49.5,9.5C 49.3764,10.1067 49.0431,10.44 48.5,10.5 Z"/></g>
<g><path style="opacity:1" fill="#db2f2e" d="M 43.5,12.5 C 43.5,12.8333 43.5,13.1667 43.5,13.5C 42.6515,15.8876 41.6515,18.2209 40.5,20.5C 39.1586,18.0677 36.9919,16.7344 34,16.5C 31.5099,17.4812 29.0099,17.6479 26.5,17C 24.4556,17.4983 23.1223,18.665 22.5,20.5C 21.3485,18.2209 20.3485,15.8876 19.5,13.5C 19.5,13.1667 19.5,12.8333 19.5,12.5C 22.1985,12.5339 24.6985,11.8672 27,10.5C 27.3076,11.3081 27.8076,11.9747 28.5,12.5C 29.5,11.8333 30.5,11.1667 31.5,10.5C 35.448,11.4451 39.448,12.1118 43.5,12.5 Z"/></g>
<g><path style="opacity:1" fill="#f09bac" d="M 14.5,10.5 C 15.6009,9.40168 16.9343,9.23502 18.5,10C 19.2524,10.6708 19.5858,11.5041 19.5,12.5C 19.5,12.8333 19.5,13.1667 19.5,13.5C 13.6476,17.2048 10.9809,22.5382 11.5,29.5C 10.609,28.8902 9.60895,28.5569 8.5,28.5C 8.33788,26.4727 8.50454,24.4727 9,22.5C 11.1266,18.7109 13.6266,15.2109 16.5,12C 16.1639,10.9701 15.4972,10.4701 14.5,10.5 Z"/></g>
<g><path style="opacity:1" fill="#ef9aaa" d="M 48.5,10.5 C 47.5028,10.4701 46.8361,10.9701 46.5,12C 49.3734,15.2109 51.8734,18.7109 54,22.5C 54.7958,25.0385 54.6291,27.3718 53.5,29.5C 52.8333,29.5 52.1667,29.5 51.5,29.5C 52.0191,22.5382 49.3524,17.2048 43.5,13.5C 43.5,13.1667 43.5,12.8333 43.5,12.5C 43.4142,11.5041 43.7476,10.6708 44.5,10C 46.0657,9.23502 47.3991,9.40168 48.5,10.5 Z"/></g>
<g><path style="opacity:1" fill="#ed3e3e" d="M 40.5,20.5 C 41.8,23.321 41.4667,25.9876 39.5,28.5C 39.2417,30.8098 39.2417,32.8098 39.5,34.5C 40.4721,39.4747 43.4721,41.8081 48.5,41.5C 46.901,41.2322 45.5676,41.5655 44.5,42.5C 43.1779,42.67 42.0113,42.3366 41,41.5C 40.51,42.7932 40.3433,44.1266 40.5,45.5C 39.5,48.8333 38.5,52.1667 37.5,55.5C 36.6618,55.8417 36.3284,56.5084 36.5,57.5C 36.1667,57.5 35.8333,57.5 35.5,57.5C 35.9569,52.7986 36.6236,48.132 37.5,43.5C 36.1568,38.9221 33.1568,37.4221 28.5,39C 26.8588,40.129 25.8588,41.629 25.5,43.5C 25.7445,47.2366 26.4112,50.9032 27.5,54.5C 27.3767,55.9245 27.0434,57.2579 26.5,58.5C 23.1955,60.2404 20.5289,59.5737 18.5,56.5C 18.6236,55.8933 18.9569,55.56 19.5,55.5C 20.9015,58.799 22.7348,59.1323 25,56.5C 24.7998,52.7403 23.9665,49.0736 22.5,45.5C 22.6567,44.1266 22.49,42.7932 22,41.5C 20.3005,42.4061 18.4672,42.7394 16.5,42.5C 15.791,41.596 14.791,41.2627 13.5,41.5C 14.5676,40.5655 15.901,40.2322 17.5,40.5C 21.4438,39.898 23.4438,37.898 23.5,34.5C 22.8165,34.8627 22.1499,35.1961 21.5,35.5C 20.853,33.8595 19.853,32.5261 18.5,31.5C 23.5063,30.1971 24.5063,27.5304 21.5,23.5C 21.685,22.4163 22.0183,21.4163 22.5,20.5C 23.1223,18.665 24.4556,17.4983 26.5,17C 29.0099,17.6479 31.5099,17.4812 34,16.5C 36.9919,16.7344 39.1586,18.0677 40.5,20.5 Z"/></g>
<g><path style="opacity:1" fill="#403846" d="M 24.5,21.5 C 25.5,21.5 26.5,21.5 27.5,21.5C 27.5,22.8333 27.5,24.1667 27.5,25.5C 26.5,25.5 25.5,25.5 24.5,25.5C 24.5,24.1667 24.5,22.8333 24.5,21.5 Z"/></g>
<g><path style="opacity:1" fill="#433b49" d="M 35.5,21.5 C 36.5,21.5 37.5,21.5 38.5,21.5C 38.5,22.8333 38.5,24.1667 38.5,25.5C 37.5,25.5 36.5,25.5 35.5,25.5C 35.5,24.1667 35.5,22.8333 35.5,21.5 Z"/></g>
<g><path style="opacity:0.89" fill="#dd3736" d="M 43.5,13.5 C 49.3524,17.2048 52.0191,22.5382 51.5,29.5C 49.776,32.5418 47.1093,34.3751 43.5,35C 45.0249,36.0086 46.6916,36.5086 48.5,36.5C 54.7884,36.5414 58.4551,33.5414 59.5,27.5C 60.559,29.726 60.3923,32.0594 59,34.5C 57.0349,36.5503 54.8682,38.217 52.5,39.5C 50.1432,39.6633 47.8098,39.4966 45.5,39C 43.34,37.668 41.34,36.168 39.5,34.5C 39.2417,32.8098 39.2417,30.8098 39.5,28.5C 44.7415,32.8958 48.0748,31.5625 49.5,24.5C 47.4765,20.8193 45.4765,17.1526 43.5,13.5 Z"/></g>
<g><path style="opacity:1" fill="#db6077" d="M 51.5,29.5 C 52.1667,29.5 52.8333,29.5 53.5,29.5C 52.9565,32.6996 51.2898,35.0329 48.5,36.5C 46.6916,36.5086 45.0249,36.0086 43.5,35C 47.1093,34.3751 49.776,32.5418 51.5,29.5 Z"/></g>
<g><path style="opacity:1" fill="#d83433" d="M 19.5,13.5 C 17.3054,17.2048 15.3054,21.0381 13.5,25C 14.1055,28.0712 15.7722,30.2379 18.5,31.5C 19.853,32.5261 20.853,33.8595 21.5,35.5C 20.0158,37.0737 18.3492,38.407 16.5,39.5C 10.0662,40.0351 5.56616,37.3684 3,31.5C 2.23502,29.9343 2.40168,28.6009 3.5,27.5C 4.27439,33.2364 7.60772,36.2364 13.5,36.5C 19.4551,36.161 20.1218,35.3277 15.5,34C 13.9297,32.6032 12.5964,31.1032 11.5,29.5C 10.9809,22.5382 13.6476,17.2048 19.5,13.5 Z"/></g>
<g><path style="opacity:0.992" fill="#db6279" d="M 8.5,28.5 C 9.60895,28.5569 10.609,28.8902 11.5,29.5C 12.5964,31.1032 13.9297,32.6032 15.5,34C 20.1218,35.3277 19.4551,36.161 13.5,36.5C 11.3328,34.1698 9.66615,31.5032 8.5,28.5 Z"/></g>
<g><path style="opacity:0.865" fill="#f6afbd" d="M 3.5,27.5 C 2.40168,28.6009 2.23502,29.9343 3,31.5C 5.56616,37.3684 10.0662,40.0351 16.5,39.5C 17.1667,39.5 17.5,39.8333 17.5,40.5C 15.901,40.2322 14.5676,40.5655 13.5,41.5C 12.1667,41.5 10.8333,41.5 9.5,41.5C 1.626,38.5249 -0.540667,33.1915 3,25.5C 3.46434,26.0944 3.63101,26.7611 3.5,27.5 Z"/></g>
<g><path style="opacity:0.865" fill="#f8b4c1" d="M 53.5,41.5 C 53.1667,40.8333 52.8333,40.1667 52.5,39.5C 54.8682,38.217 57.0349,36.5503 59,34.5C 60.3923,32.0594 60.559,29.726 59.5,27.5C 59.3932,25.6214 59.8932,25.2881 61,26.5C 63.2453,34.01 60.7453,39.01 53.5,41.5 Z"/></g>
<g><path style="opacity:1" fill="#e37387" d="M 17.5,40.5 C 17.5,39.8333 17.1667,39.5 16.5,39.5C 18.3492,38.407 20.0158,37.0737 21.5,35.5C 22.1499,35.1961 22.8165,34.8627 23.5,34.5C 23.4438,37.898 21.4438,39.898 17.5,40.5 Z"/></g>
<g><path style="opacity:1" fill="#ed8fa0" d="M 39.5,34.5 C 41.34,36.168 43.34,37.668 45.5,39C 47.8098,39.4966 50.1432,39.6633 52.5,39.5C 52.8333,40.1667 53.1667,40.8333 53.5,41.5C 51.8333,41.5 50.1667,41.5 48.5,41.5C 43.4721,41.8081 40.4721,39.4747 39.5,34.5 Z"/></g>
<g><path style="opacity:1" fill="#eb8b9d" d="M 37.5,43.5 C 36.5,42.1667 35.5,42.1667 34.5,43.5C 32.5,42.1667 30.5,42.1667 28.5,43.5C 27.5,42.1667 26.5,42.1667 25.5,43.5C 25.8588,41.629 26.8588,40.129 28.5,39C 33.1568,37.4221 36.1568,38.9221 37.5,43.5 Z"/></g>
<g><path style="opacity:1" fill="#e57d90" d="M 22.5,45.5 C 20.5,45.5 18.5,45.5 16.5,45.5C 16.6107,44.8826 16.944,44.3826 17.5,44C 15.8659,43.5065 14.1992,43.3398 12.5,43.5C 13.5676,42.5655 14.901,42.2322 16.5,42.5C 18.4672,42.7394 20.3005,42.4061 22,41.5C 22.49,42.7932 22.6567,44.1266 22.5,45.5 Z"/></g>
<g><path style="opacity:0.776" fill="#f1a6b0" d="M 12.5,43.5 C 14.1992,43.3398 15.8659,43.5065 17.5,44C 16.944,44.3826 16.6107,44.8826 16.5,45.5C 10.6229,45.2057 8.12289,47.8724 9,53.5C 10.0736,54.6184 11.2402,55.6184 12.5,56.5C 11.3864,57.7759 10.3864,57.7759 9.5,56.5C 5.94908,53.0072 5.61574,49.1738 8.5,45C 9.74499,44.2086 11.0783,43.7086 12.5,43.5 Z"/></g>
<g><path style="opacity:0.776" fill="#ef9ca8" d="M 44.5,42.5 C 55.748,42.3652 58.748,47.0319 53.5,56.5C 52.6136,57.7759 51.6136,57.7759 50.5,56.5C 54.8269,54.0308 55.4936,50.8642 52.5,47C 48.6372,45.6463 44.6372,45.1463 40.5,45.5C 40.3433,44.1266 40.51,42.7932 41,41.5C 42.0113,42.3366 43.1779,42.67 44.5,42.5 Z"/></g>
<g><path style="opacity:0.573" fill="#aa1a17" d="M 9.5,41.5 C 10.8333,41.5 12.1667,41.5 13.5,41.5C 14.791,41.2627 15.791,41.596 16.5,42.5C 14.901,42.2322 13.5676,42.5655 12.5,43.5C 11.0783,43.7086 9.74499,44.2086 8.5,45C 5.61574,49.1738 5.94908,53.0072 9.5,56.5C 6.3419,55.6146 4.67523,53.4479 4.5,50C 5.05519,46.3717 6.72186,43.5384 9.5,41.5 Z"/></g>
<g><path style="opacity:0.059" fill="#ae1c19" d="M 44.5,42.5 C 45.5676,41.5655 46.901,41.2322 48.5,41.5C 50.1667,41.5 51.8333,41.5 53.5,41.5C 57.8117,44.9414 58.9784,49.2747 57,54.5C 56.1841,55.8228 55.0174,56.4894 53.5,56.5C 58.748,47.0319 55.748,42.3652 44.5,42.5 Z"/></g>
<g><path style="opacity:0.227" fill="#f5abbb" d="M 28.5,43.5 C 28.9071,47.203 29.5737,50.8697 30.5,54.5C 30.0976,56.3002 29.4309,57.9668 28.5,59.5C 27.5084,59.6716 26.8417,59.3382 26.5,58.5C 27.0434,57.2579 27.3767,55.9245 27.5,54.5C 26.4112,50.9032 25.7445,47.2366 25.5,43.5C 26.5,42.1667 27.5,42.1667 28.5,43.5 Z"/></g>
<g><path style="opacity:0.227" fill="#f6aebd" d="M 37.5,43.5 C 36.6236,48.132 35.9569,52.7986 35.5,57.5C 35.5,58.1667 35.1667,58.5 34.5,58.5C 33.3349,57.5039 32.6682,56.1705 32.5,54.5C 33.4263,50.8697 34.0929,47.203 34.5,43.5C 35.5,42.1667 36.5,42.1667 37.5,43.5 Z"/></g>
<g><path style="opacity:0.786" fill="#d4586d" d="M 19.5,55.5 C 18.9569,55.56 18.6236,55.8933 18.5,56.5C 20.5289,59.5737 23.1955,60.2404 26.5,58.5C 26.8417,59.3382 27.5084,59.6716 28.5,59.5C 25.8632,61.4274 22.8632,61.9274 19.5,61C 16.6483,58.8474 16.1483,56.3474 18,53.5C 18.7172,54.0442 19.2172,54.7109 19.5,55.5 Z"/></g>
<g><path style="opacity:0.867" fill="#a20b0a" d="M 37.5,55.5 C 39.5,59.5 41.5,59.5 43.5,55.5C 44.6448,56.7927 44.3115,57.9593 42.5,59C 40.0106,59.9411 38.0106,59.4411 36.5,57.5C 36.3284,56.5084 36.6618,55.8417 37.5,55.5 Z"/></g>
<g><path style="opacity:0.992" fill="#d65b70" d="M 34.5,58.5 C 35.1667,58.5 35.5,58.1667 35.5,57.5C 35.8333,57.5 36.1667,57.5 36.5,57.5C 38.0106,59.4411 40.0106,59.9411 42.5,59C 44.3115,57.9593 44.6448,56.7927 43.5,55.5C 44.8376,52.9663 45.8376,53.2996 46.5,56.5C 44.7144,61.1805 41.3811,62.6805 36.5,61C 35.244,60.5831 34.5774,59.7498 34.5,58.5 Z"/></g>
</svg>
