<?xml version="1.0" encoding="UTF-8"?>
<!DOCTYPE svg PUBLIC "-//W3C//DTD SVG 1.1//EN" "http://www.w3.org/Graphics/SVG/1.1/DTD/svg11.dtd">
<svg xmlns="http://www.w3.org/2000/svg" version="1.1" width="48px" height="48px" style="shape-rendering:geometricPrecision; text-rendering:geometricPrecision; image-rendering:optimizeQuality; fill-rule:evenodd; clip-rule:evenodd" xmlns:xlink="http://www.w3.org/1999/xlink">
<g><path style="opacity:0.968" fill="#1277b8" d="M 23.5,3.5 C 23.5,7.16667 23.5,10.8333 23.5,14.5C 20.8342,13.1579 18.5008,11.3245 16.5,9C 14.8659,8.50649 13.1992,8.33982 11.5,8.5C 11.3338,14.8421 11.5005,21.1754 12,27.5C 12.6872,29.5547 13.8539,31.2214 15.5,32.5C 16.3295,27.1975 16.8295,21.8642 17,16.5C 20.1733,19.4225 21.34,23.0892 20.5,27.5C 21.5,27.5 22.5,27.5 23.5,27.5C 23.5,32.8333 23.5,38.1667 23.5,43.5C 17.9269,40.4299 13.0936,36.4299 9,31.5C 8.2909,23.1616 7.95756,14.8282 8,6.5C 12.8098,3.8983 17.9764,2.8983 23.5,3.5 Z"/></g>
<g><path style="opacity:0.962" fill="#2b6692" d="M 23.5,3.5 C 29.0236,2.8983 34.1902,3.8983 39,6.5C 38.9814,14.8235 38.6481,23.1568 38,31.5C 33.9064,36.4299 29.0731,40.4299 23.5,43.5C 23.5,38.1667 23.5,32.8333 23.5,27.5C 24.5,27.5 25.5,27.5 26.5,27.5C 25.66,23.0892 26.8267,19.4225 30,16.5C 30.3333,22.1667 30.6667,27.8333 31,33.5C 32.8294,31.8442 34.1628,29.8442 35,27.5C 35.4995,21.1754 35.6662,14.8421 35.5,8.5C 33.8008,8.33982 32.1341,8.50649 30.5,9C 28.5779,11.4295 26.2446,13.2628 23.5,14.5C 23.5,10.8333 23.5,7.16667 23.5,3.5 Z"/></g>
<g><path style="opacity:1" fill="#fafbfc" d="M 23.5,14.5 C 26.2446,13.2628 28.5779,11.4295 30.5,9C 32.1341,8.50649 33.8008,8.33982 35.5,8.5C 35.6662,14.8421 35.4995,21.1754 35,27.5C 34.1628,29.8442 32.8294,31.8442 31,33.5C 30.6667,27.8333 30.3333,22.1667 30,16.5C 26.8267,19.4225 25.66,23.0892 26.5,27.5C 25.5,27.5 24.5,27.5 23.5,27.5C 22.5,27.5 21.5,27.5 20.5,27.5C 21.34,23.0892 20.1733,19.4225 17,16.5C 16.8295,21.8642 16.3295,27.1975 15.5,32.5C 13.8539,31.2214 12.6872,29.5547 12,27.5C 11.5005,21.1754 11.3338,14.8421 11.5,8.5C 13.1992,8.33982 14.8659,8.50649 16.5,9C 18.5008,11.3245 20.8342,13.1579 23.5,14.5 Z"/></g>
</svg>
