<?xml version="1.0" standalone="no"?>
<!DOCTYPE svg PUBLIC "-//W3C//DTD SVG 20010904//EN"
 "http://www.w3.org/TR/2001/REC-SVG-20010904/DTD/svg10.dtd">
<svg version="1.0" xmlns="http://www.w3.org/2000/svg"
 width="750.000000pt" height="1000.000000pt" viewBox="0 0 750.000000 1000.000000"
 preserveAspectRatio="xMidYMid meet">

<g transform="translate(0.000000,1000.000000) scale(0.100000,-0.100000)"
fill="#2f70b0" stroke="none">
<path d="M1995 8259 c-341 -189 -552 -337 -775 -547 -331 -310 -559 -616 -769
-1032 -305 -602 -480 -1395 -441 -1995 58 -900 463 -1645 1209 -2225 915 -712
2183 -992 3396 -749 792 158 1483 522 2019 1064 524 529 807 1159 856 1906 13
198 3 412 -30 653 -170 1213 -783 2213 -1704 2781 -112 69 -450 255 -463 255
-10 0 -223 -242 -271 -309 -67 -91 -127 -229 -175 -396 -33 -119 -44 -174 -67
-334 -10 -73 -21 -135 -23 -137 -2 -3 -46 7 -98 20 -566 149 -1238 151 -1798
6 -63 -17 -115 -30 -117 -30 -3 0 -6 16 -29 180 -34 236 -107 471 -195 624
-43 74 -289 369 -313 373 -7 2 -102 -47 -212 -108z m-150 -1454 c-4 -130 -34
-460 -91 -1032 -4 -35 -4 -63 -1 -63 3 0 169 88 369 197 541 292 681 356 943
428 619 170 1284 102 1866 -191 52 -26 255 -134 453 -241 197 -107 360 -192
363 -190 4 5 -5 101 -63 682 -26 259 -41 655 -25 655 14 0 193 -190 272 -290
300 -377 502 -833 608 -1375 70 -357 71 -732 5 -1000 -97 -391 -294 -729 -592
-1016 -462 -446 -1038 -712 -1762 -816 -178 -25 -700 -25 -880 1 -716 101
-1287 364 -1753 806 -350 332 -562 733 -632 1195 -22 147 -23 430 -1 595 97
736 372 1345 816 1803 l95 99 8 -44 c5 -23 6 -115 2 -203z"/>
</g>
</svg>
