<svg width="512" height="512" viewBox="0 0 135.47 135.47" xmlns="http://www.w3.org/2000/svg"><defs><linearGradient id="a" x1="117.16" x2="45.031" y1="198.59" y2="300.75" gradientTransform="translate(-19.268 -63.434) scale(1.2955)" gradientUnits="userSpaceOnUse"><stop stop-color="#272a34" offset="0"/><stop stop-color="#919191" stop-opacity="0" offset="1"/></linearGradient></defs><g stroke-width=".24"><path d="M122.97 14.21c.49 0 .917.4 1.416 1.163.37.566 1.054 1.479 1.521 2.028.678.797.862 1.203.905 2.005.055.992.07 1.011 1.153 1.468 2.136.9 2.51 2.661 1.138 5.366-.624 1.232-.699 1.609-.512 2.576.158.815.104 1.482-.193 2.378-.411 1.242-1.091 7.857-.993 9.656.063 1.146.47 2.141 1.217 2.976.479.535.498.611.137.54-.476-.092-.518.403-.096 1.14.196.344.204.482.024.447-.47-.091-.188 1.204.495 2.269.833 1.302.837 1.383.052 1.095-.538-.198-.686-.115-.974.545-.357.815-.222 1.532.435 2.305.345.406.333.5-.107.837-.558.426-.608.827-.162 1.3.42.446.626 3.153.235 3.077-.165-.032-.533.076-.819.24-.51.294-.51.322-.036 1.439.478 1.127.477 1.148-.096 2.039-.535.83-.576 1.192-.523 4.668.032 2.072-.036 3.84-.15 3.928-.12.09-.362-.17-.566-.609-.196-.422-.442-.785-.548-.806-.272-.053-.43 2.255-.203 2.983.14.453.03.748-.43 1.15-.535.468-.616.479-.605.085.027-1.038-.126-1.059-1.024-.137-.52.532-1.267 1.01-1.662 1.06-.86.11-1.056.406-1.488 2.248-.327 1.395-.644 1.95-1.067 1.867-.122-.024-.23-.212-.241-.418-.034-.61-.678-.085-.962.784-.204.625-.306.687-.631.388-.407-.375-.481-.334-1.072.585-.232.36-.251.357-.615-.12-.326-.428-.405-.454-.608-.195-.128.164-.21.752-.182 1.308.044.867-.004.96-.337.651-.582-.535-1.058-.338-1.188.491-.063.407-.944 2.121-1.957 3.81-2.735 4.56-3.721 6.427-4.217 7.982-1.1 4.439-.763 8.78-.61 13.1l-16.985 9.976-2.73-1.346 14.944-8.648-.052-.17c-.116-.35-.438-3.304-.716-6.565-.68-7.988-1.764-13.377-2.727-13.565-.126-.024-.295.172-.378.437l-.15.482-.247-.584c-.233-.55-.28-.57-.818-.343-.514.217-.61.197-.983-.198-.796-.846-1.196-.438-1.116 1.137.04.798-.137 2.696-.395 4.218-.93 5.496-1.283 13.5-.67 15.14l.004.012-9.97 8.61-2.99-.512 7.585-8.098c-.39-.938-1.381-2.626-1.96-3.203-.873-.87-.921-1.603-.245-3.758.983-3.137.73-14.74-.365-16.672-.393-.693-.62-.864-1.33-1.002-.47-.092-1.168-.118-1.55-.059-.558.087-.635.063-.395-.123.89-.689-.246-1.186-2.314-1.014l-1.152.097.467-.551c.939-1.11.398-1.583-1.618-1.418-1.136.094-2.935 1.512-3.693 2.913-.273.505-.957 2.006-1.52 3.337-2.036 4.819-4.186 8.124-6.221 9.566-.893.632-3.148 1.571-5.027 2.093-1.326.37-3.373 1.791-4.056 2.82-.855 1.287-1.256 3.32-1.06 5.374.07.734.172 1.265.3 1.6l4.418 6.75-4.989-1.124-5.29-5.627c.248-1.131.453-3.863.37-5.556-.048-.99-.303-2.124-.715-3.182-.812-2.089-.713-2.964.398-3.498a6.693 6.693 0 0 0 1.446-1c1.187-1.143 2.54-5.902 1.826-6.43-.34-.251-1.316-.047-2.871.6-.668.278-2.376.732-3.796 1.01-4.101.8-6.017 1.635-7.248 3.155-1.099 1.357-6.797 11.897-7.01 12.968-.096.478-.15 1.289-.141 1.934l23.03 8.223-3.996-.114-25.878-8.11c.092-1.23.186-3.074.161-3.658-.014-.333.236-.587.713-.724.587-.17.726-.362.692-.964-.028-.512.245-1.067.858-1.743 1.697-1.873 3.817-8.13 3.673-10.842-.083-1.574.268-3.822.738-4.725.321-.616.933-1.048 2.371-1.672 2.43-1.055 3.463-1.951 4.433-3.841 1.162-2.267 1.935-5.48 1.342-5.587-.103-.019-.43.287-.726.68-.394.524-.67.659-1.032.503-.684-.294-1.21.185-1.166 1.061.02.404-.058.863-.173 1.021-.163.222-.3.09-.61-.576l-.399-.863-1.947 1.507c-1.361 1.054-2.127 1.472-2.549 1.39-.33-.065-1.056.154-1.61.486-.889.533-1.453.697-1.467.428-.003-.048.144-.427.326-.843.63-1.436.176-1.682-1.484-.806-2.05 1.082-2.599 1.098-2.655.078-.02-.381-.14-.713-.264-.737-.124-.024-.794.205-1.488.51-.694.305-1.36.535-1.481.512-.121-.024-.415-.333-.654-.687-.365-.542-.53-.628-1.045-.547-.875.139-1.33.007-1.352-.385-.023-.427-.55-.628-3.552-1.35-3.334-.803-3.942-1.222-2.84-1.958.7-.469.576-.688-.51-.9-.531-.103-1.328-.372-1.77-.596-.664-.336-.784-.494-.688-.909.133-.58-.17-.857-1.452-1.33l-.896-.33.799-.152c1.38-.263.844-1.09-1.11-1.713-1.757-.56-2.06-.888-1.786-1.931.123-.472.21-1.137.192-1.479-.018-.342.07-.661.195-.71.374-.144 2.514.795 5.176 2.271 2.78 1.542 4.232 1.958 6.012 1.723.589-.078 2.093-.083 3.343-.013 4.811.274 9.183-1.264 12.138-4.271.627-.638 1.613-1.503 2.193-1.923.705-.51 1.043-.957 1.022-1.351-.033-.6.048-.64 1.29-.65.608-.006.657-.065.357-.433-.295-.363-.253-.483.274-.795.341-.202.956-.472 1.366-.6s.86-.426 1-.663c.235-.396.19-.442-.585-.593-.462-.09-1.038-.331-1.282-.536-.388-.326-.342-.355.374-.232.927.158 2.564-.176 3.995-.816 1.302-.582 2.689-.846 5.354-1.019 2.475-.16 4.243-.585 6.532-1.571 3.366-1.45 3.563-1.455 10.072-.233 8.415 1.58 9.882 1.522 14.793-.586 3.892-1.67 5.975-2.256 8.293-2.332 2.132-.07 3.536-.425 4.865-1.23.706-.427.979-1.276.443-1.38-.138-.028-.255-.128-.26-.223-.006-.095.567-.024 1.274.158 1.443.371 2.174.14 1.355-.428-.446-.31-.431-.354.214-.629.381-.162.878-.26 1.102-.217a.89.89 0 0 0 .703-.208c.161-.157.562-.233.89-.17.644.126.726-.104.302-.846-.279-.488.055-.881.741-.877 1.65.013 2.5-.518 3.374-2.103.376-.681.875-1.44 1.11-1.685.54-.567.37-.944-.741-1.632-1.384-.856-1.242-1.438.668-2.75 3.659-2.516 3.93-2.773 5.024-4.755 1.482-2.682 3.24-4.732 4.228-4.927 2.555-.504 2.763-.63 3.578-2.17.433-.82 1.275-1.942 1.871-2.494s1.487-1.49 1.98-2.087c1.132-1.368 1.869-2.02 2.5-2.017z" opacity=".3"/><path d="M122.97 16.85c.49 0 .917.4 1.416 1.163.37.566 1.054 1.478 1.521 2.028.678.797.862 1.203.905 2.005.055.992.07 1.011 1.153 1.468 2.136.9 2.51 2.661 1.138 5.366-.624 1.232-.699 1.608-.512 2.576.158.815.104 1.482-.193 2.378-.411 1.242-1.091 7.857-.993 9.656.063 1.146.47 2.141 1.217 2.976.479.535.498.611.137.54-.476-.092-.518.403-.096 1.14.196.344.204.482.024.447-.47-.091-.188 1.204.495 2.269.833 1.302.837 1.383.052 1.095-.538-.198-.686-.115-.974.545-.357.815-.222 1.532.435 2.305.345.406.333.5-.107.837-.558.426-.608.827-.162 1.3.42.446.626 3.153.235 3.077-.165-.032-.533.076-.819.24-.51.294-.51.322-.036 1.439.478 1.127.477 1.148-.096 2.039-.535.83-.576 1.192-.523 4.668.032 2.072-.036 3.84-.15 3.928-.12.09-.362-.17-.566-.609-.196-.422-.442-.785-.548-.806-.272-.053-.43 2.255-.203 2.983.14.453.03.748-.43 1.15-.535.468-.616.479-.605.085.027-1.038-.126-1.059-1.024-.137-.52.532-1.267 1.01-1.662 1.06-.86.11-1.056.406-1.488 2.248-.327 1.395-.644 1.95-1.067 1.867-.122-.024-.23-.212-.241-.418-.034-.61-.678-.085-.962.784-.204.625-.306.687-.631.388-.407-.375-.481-.334-1.072.585-.232.36-.251.357-.615-.12-.326-.428-.405-.454-.608-.195-.128.164-.21.752-.182 1.308.044.867-.004.959-.337.651-.582-.535-1.058-.338-1.188.491-.063.407-.944 2.121-1.957 3.81-2.735 4.56-3.721 6.427-4.217 7.982-1.1 4.439-.763 8.78-.61 13.1l-16.985 9.976-2.73-1.346 14.944-8.648-.052-.17c-.116-.35-.438-3.304-.716-6.565-.68-7.988-1.764-13.377-2.727-13.565-.126-.024-.295.172-.378.437l-.15.482-.247-.584c-.233-.55-.28-.57-.818-.343-.514.217-.61.197-.983-.198-.796-.846-1.196-.438-1.116 1.137.04.798-.137 2.696-.395 4.218-.93 5.496-1.283 13.5-.67 15.14l.004.012-9.97 8.61-2.99-.512 7.585-8.099c-.39-.937-1.381-2.625-1.96-3.202-.873-.87-.921-1.603-.245-3.758.983-3.137.73-14.74-.365-16.672-.393-.693-.62-.864-1.33-1.002-.47-.092-1.168-.118-1.55-.059-.558.087-.635.063-.395-.123.89-.689-.246-1.186-2.314-1.014l-1.152.097.467-.551c.939-1.11.398-1.583-1.618-1.418-1.136.094-2.935 1.512-3.693 2.913-.273.505-.957 2.006-1.52 3.337-2.036 4.819-4.186 8.124-6.221 9.566-.893.632-3.148 1.571-5.027 2.093-1.326.37-3.373 1.791-4.056 2.82-.855 1.287-1.256 3.32-1.06 5.374.07.734.172 1.265.3 1.6l4.418 6.75-4.989-1.124-5.29-5.627c.248-1.131.453-3.863.37-5.556-.048-.99-.303-2.124-.715-3.182-.812-2.089-.713-2.964.398-3.498a6.693 6.693 0 0 0 1.446-1c1.187-1.143 2.54-5.902 1.826-6.43-.34-.251-1.316-.047-2.871.6-.668.278-2.376.732-3.796 1.01-4.101.8-6.017 1.635-7.248 3.155-1.099 1.357-6.797 11.897-7.01 12.968-.096.478-.15 1.289-.141 1.934l23.03 8.223-3.996-.114-25.878-8.11c.092-1.23.186-3.074.161-3.658-.014-.333.236-.587.713-.724.587-.17.726-.362.692-.964-.028-.512.245-1.067.858-1.743 1.697-1.873 3.817-8.13 3.673-10.842-.083-1.574.268-3.822.738-4.725.321-.616.933-1.048 2.371-1.672 2.43-1.055 3.463-1.951 4.433-3.841 1.162-2.267 1.935-5.48 1.342-5.587-.103-.019-.43.287-.726.68-.394.524-.67.659-1.032.503-.684-.294-1.21.185-1.166 1.061.02.404-.058.863-.173 1.021-.163.222-.3.09-.61-.576l-.399-.863-1.947 1.507c-1.361 1.054-2.127 1.472-2.549 1.39-.33-.065-1.056.154-1.61.486-.889.533-1.453.697-1.467.428-.003-.048.144-.427.326-.843.63-1.436.176-1.682-1.484-.806-2.05 1.082-2.599 1.098-2.655.078-.02-.381-.14-.713-.264-.737-.124-.024-.794.205-1.488.51-.694.305-1.36.535-1.481.512-.121-.024-.415-.333-.654-.687-.365-.542-.53-.628-1.045-.547-.875.139-1.33.007-1.352-.385-.023-.427-.55-.628-3.552-1.35-3.334-.803-3.942-1.222-2.84-1.958.7-.469.576-.688-.51-.9-.531-.103-1.328-.372-1.77-.596-.664-.336-.784-.494-.688-.909.133-.58-.17-.857-1.452-1.33l-.896-.33.799-.152c1.38-.263.844-1.09-1.11-1.713-1.757-.56-2.06-.888-1.786-1.931.123-.472.21-1.137.192-1.479-.018-.342.07-.661.195-.71.374-.144 2.514.795 5.176 2.271 2.78 1.542 4.232 1.958 6.012 1.723.589-.078 2.093-.083 3.343-.013 4.811.274 9.183-1.264 12.138-4.271.627-.638 1.613-1.503 2.193-1.923.705-.51 1.043-.957 1.022-1.351-.033-.6.048-.64 1.29-.65.608-.006.657-.065.357-.433-.295-.363-.253-.483.274-.795.341-.202.956-.472 1.366-.6s.86-.426 1-.663c.235-.396.19-.442-.585-.593-.462-.09-1.038-.331-1.282-.536-.388-.326-.342-.355.374-.232.927.158 2.564-.176 3.995-.816 1.302-.582 2.689-.846 5.354-1.019 2.475-.16 4.243-.585 6.532-1.571 3.366-1.45 3.563-1.455 10.072-.233 8.415 1.58 9.882 1.522 14.793-.586 3.892-1.67 5.975-2.256 8.293-2.332 2.132-.07 3.536-.425 4.865-1.23.706-.427.979-1.276.443-1.38-.138-.028-.255-.128-.26-.223-.006-.095.567-.024 1.274.158 1.443.371 2.174.14 1.355-.428-.446-.31-.431-.354.214-.629.381-.162.878-.26 1.102-.217a.89.89 0 0 0 .703-.208c.161-.157.562-.233.89-.17.644.126.726-.104.302-.846-.279-.488.055-.881.741-.877 1.65.013 2.5-.518 3.374-2.103.376-.681.875-1.44 1.11-1.685.54-.567.37-.944-.741-1.632-1.384-.856-1.242-1.438.668-2.75 3.659-2.516 3.93-2.773 5.024-4.755 1.482-2.682 3.24-4.732 4.228-4.927 2.555-.504 2.763-.63 3.578-2.17.433-.82 1.275-1.942 1.871-2.494s1.487-1.49 1.98-2.087c1.132-1.368 1.869-2.02 2.5-2.017z" fill="#fff"/><path d="M122.97 178.38c.49 0 .917.4 1.416 1.163.37.566 1.054 1.478 1.521 2.028.678.797.862 1.203.905 2.005.055.992.07 1.011 1.153 1.468 2.136.9 2.51 2.661 1.138 5.366-.624 1.232-.699 1.609-.512 2.576.158.815.104 1.482-.193 2.378-.411 1.242-1.091 7.857-.993 9.656.063 1.146.47 2.141 1.217 2.976.479.535.498.611.137.54-.476-.092-.518.403-.096 1.14.196.344.204.482.024.447-.47-.091-.188 1.204.495 2.269.833 1.302.837 1.383.052 1.095-.538-.198-.686-.115-.974.545-.357.815-.222 1.532.435 2.305.345.406.333.5-.107.837-.558.426-.608.827-.162 1.3.42.446.626 3.153.235 3.077-.165-.032-.533.076-.819.24-.51.294-.51.322-.036 1.439.478 1.127.477 1.148-.096 2.039-.535.83-.576 1.192-.523 4.668.032 2.072-.036 3.84-.15 3.928-.12.09-.362-.17-.566-.609-.196-.422-.442-.785-.548-.806-.272-.053-.43 2.255-.203 2.983.14.453.03.748-.43 1.15-.535.468-.616.479-.605.085.027-1.038-.126-1.059-1.024-.137-.52.532-1.267 1.01-1.662 1.06-.86.11-1.056.406-1.488 2.248-.327 1.395-.644 1.95-1.067 1.867-.122-.024-.23-.212-.241-.418-.034-.61-.678-.085-.962.784-.204.625-.306.687-.631.388-.407-.375-.481-.334-1.072.585-.232.36-.251.357-.615-.12-.326-.428-.405-.454-.608-.195-.128.164-.21.752-.182 1.308.044.867-.004.96-.337.651-.582-.535-1.058-.338-1.188.491-.063.407-.944 2.121-1.957 3.81-2.735 4.56-3.721 6.427-4.217 7.982-1.1 4.439-.763 8.78-.61 13.1l-16.985 9.976-2.73-1.346 14.944-8.648-.052-.17c-.116-.35-.438-3.304-.716-6.565-.68-7.988-1.764-13.377-2.727-13.565-.126-.024-.295.172-.378.437l-.15.482-.247-.584c-.233-.55-.28-.57-.818-.343-.514.217-.61.197-.983-.198-.796-.846-1.196-.438-1.116 1.137.04.798-.137 2.696-.395 4.218-.93 5.496-1.283 13.5-.67 15.14l.004.012-9.97 8.61-2.99-.512 7.585-8.098c-.39-.938-1.381-2.626-1.96-3.203-.873-.87-.921-1.603-.245-3.758.983-3.137.73-14.74-.365-16.672-.393-.693-.62-.864-1.33-1.002-.47-.092-1.168-.118-1.55-.059-.558.087-.635.063-.395-.123.89-.689-.246-1.186-2.314-1.014l-1.152.097.467-.551c.939-1.11.398-1.583-1.618-1.418-1.136.094-2.935 1.512-3.693 2.913-.273.505-.957 2.006-1.52 3.337-2.036 4.819-4.186 8.124-6.221 9.566-.893.632-3.148 1.571-5.027 2.093-1.326.37-3.373 1.791-4.056 2.82-.855 1.287-1.256 3.32-1.06 5.374.07.734.172 1.265.3 1.6l4.418 6.75-4.989-1.124-5.29-5.627c.248-1.131.453-3.863.37-5.556-.048-.99-.303-2.124-.715-3.182-.812-2.089-.713-2.964.398-3.498a6.693 6.693 0 0 0 1.446-1c1.187-1.143 2.54-5.902 1.826-6.43-.34-.251-1.316-.047-2.871.6-.668.278-2.376.732-3.796 1.01-4.101.8-6.017 1.635-7.248 3.155-1.099 1.357-6.797 11.897-7.01 12.968-.096.478-.15 1.289-.141 1.934l23.03 8.223-3.996-.114-25.878-8.11c.092-1.23.186-3.074.161-3.658-.014-.333.236-.587.713-.724.587-.17.726-.362.692-.964-.028-.512.245-1.067.858-1.743 1.697-1.873 3.817-8.13 3.673-10.842-.083-1.574.268-3.822.738-4.725.321-.616.933-1.048 2.371-1.672 2.43-1.055 3.463-1.951 4.433-3.841 1.162-2.267 1.935-5.48 1.342-5.587-.103-.019-.43.287-.726.68-.394.524-.67.659-1.032.503-.684-.294-1.21.185-1.166 1.061.02.404-.058.863-.173 1.021-.163.222-.3.09-.61-.576l-.399-.863-1.947 1.507c-1.361 1.054-2.127 1.472-2.549 1.39-.33-.065-1.056.154-1.61.486-.889.533-1.453.697-1.467.428-.003-.048.144-.427.326-.843.63-1.436.176-1.682-1.484-.806-2.05 1.082-2.599 1.098-2.655.078-.02-.381-.14-.713-.264-.737-.124-.024-.794.205-1.488.51-.694.305-1.36.535-1.481.512-.121-.024-.415-.333-.654-.687-.365-.542-.53-.628-1.045-.547-.875.139-1.33.007-1.352-.385-.023-.427-.55-.628-3.552-1.35-3.334-.803-3.942-1.222-2.84-1.958.7-.469.576-.688-.51-.9-.531-.103-1.328-.372-1.77-.596-.664-.336-.784-.494-.688-.909.133-.58-.17-.857-1.452-1.33l-.896-.33.799-.152c1.38-.263.844-1.09-1.11-1.713-1.757-.56-2.06-.888-1.786-1.931.123-.472.21-1.137.192-1.479-.018-.342.07-.661.195-.71.374-.144 2.514.795 5.176 2.271 2.78 1.542 4.232 1.958 6.012 1.723.589-.078 2.093-.083 3.343-.013 4.811.274 9.183-1.264 12.138-4.271.627-.638 1.613-1.503 2.193-1.923.705-.51 1.043-.957 1.022-1.351-.033-.6.048-.64 1.29-.65.608-.006.657-.065.357-.433-.295-.363-.253-.483.274-.795.341-.202.956-.472 1.366-.6s.86-.426 1-.663c.235-.396.19-.442-.585-.593-.462-.09-1.038-.331-1.282-.536-.388-.326-.342-.355.374-.232.927.158 2.564-.176 3.995-.816 1.302-.582 2.689-.846 5.354-1.019 2.475-.16 4.243-.585 6.532-1.571 3.366-1.45 3.563-1.455 10.072-.233 8.415 1.58 9.882 1.522 14.793-.586 3.892-1.67 5.975-2.256 8.293-2.332 2.132-.07 3.536-.425 4.865-1.23.706-.427.979-1.276.443-1.38-.138-.028-.255-.128-.26-.223-.006-.095.567-.024 1.274.158 1.443.371 2.174.14 1.355-.428-.446-.31-.431-.354.214-.629.381-.162.878-.26 1.102-.217a.89.89 0 0 0 .703-.208c.161-.157.562-.233.89-.17.644.126.726-.104.302-.846-.279-.488.055-.881.741-.877 1.65.013 2.5-.518 3.374-2.103.376-.681.875-1.44 1.11-1.685.54-.567.37-.944-.741-1.632-1.384-.856-1.242-1.438.668-2.75 3.659-2.516 3.93-2.773 5.024-4.755 1.482-2.682 3.24-4.732 4.228-4.927 2.555-.504 2.763-.63 3.578-2.17.433-.82 1.275-1.942 1.871-2.494s1.487-1.49 1.98-2.087c1.132-1.368 1.869-2.02 2.5-2.017z" fill="url(#a)" transform="translate(0 -161.53)"/></g><path d="M87.109 114.53c-1.236-1.236-1.45-2.006-1.45-5.205 0-2.198-.327-4.201-.789-4.833-.706-.965-.868-.703-1.55 2.505-.577 2.723-.6 4.043-.094 5.493.366 1.05.574 2.001.462 2.113-.112.112-1.029.039-2.036-.163-1.348-.27-1.997-.836-2.451-2.14-.34-.975-.486-1.988-.323-2.25.899-1.455 1.403-6.666.76-7.857-.38-.703-.635-2.143-.566-3.2.123-1.905.103-1.92-2.7-2.004-5.856-.176-7.004-.305-8.581-.971-.891-.376-2-.538-2.466-.36-.488.188-1.125-.195-1.503-.902-.761-1.422-2.388-1.649-2.388-.334 0 .492-.248 1.356-.552 1.92-1.927 3.585-2.395 12.29-.792 14.736l1.019 1.555-2.274-.37c-1.251-.202-2.418-.512-2.594-.688-.176-.176-.267-2.713-.203-5.638.065-2.926-.102-5.319-.37-5.319-.644 0-1.916 4.82-1.913 7.247.001 1.051.533 2.782 1.182 3.846.649 1.064 1.18 2.06 1.18 2.216s-1.043.28-2.317.28c-2.893 0-2.89.014-3.322-12.911-.234-7.031-.557-10.02-1.185-10.98-.658-1.004-.786-2.495-.54-6.285.177-2.733.577-5.224.889-5.536 1.048-1.048.57-2.39-1.21-3.404-1.982-1.128-2.633-3.902-.735-3.131 2.737 1.112 4.686 1.418 7.462 1.17 2.746-.244 4.224.044 7.752 1.51 2.61 1.084 10.201 1.865 10.675 1.098.162-.261.657-.336 1.101-.165.445.17.984.026 1.198-.322.215-.347 1.023-.63 1.797-.63.775 0 1.572-.267 1.773-.592.2-.324 1.278-.59 2.393-.59 1.516 0 2.493-.485 3.871-1.92 1.014-1.057 2.08-2.453 2.368-3.103.288-.65.828-1.604 1.2-2.121.54-.749.36-1.408-.884-3.24-3.13-4.605-1.071-6.059 2.869-2.024 2.725 2.79 4.407 2.996 7.472.913 2.366-1.607 3.02-1.434 2.496.66-.193.768-.092 1.725.225 2.127.317.402.745 3.824.951 7.605.353 6.466.307 6.892-.768 7.173-.628.164-1.854-.071-2.725-.523-.87-.451-2.183-.82-2.918-.82-1.287 0-1.792 1.018-2.343 4.726-.988 6.641-1.844 9.632-3.12 10.908-1.275 1.276-1.383 1.762-1.057 4.78.2 1.849.04 5.28-.354 7.627-.634 3.774-.603 4.43.269 5.674 1.254 1.79 1.295 4.099.073 4.099-.503 0-1.566-.653-2.364-1.45z" opacity=".5"/><path d="M87.109 117.17c-1.236-1.236-1.45-2.006-1.45-5.205 0-2.198-.327-4.201-.789-4.833-.706-.965-.868-.703-1.55 2.505-.577 2.723-.6 4.043-.094 5.493.366 1.05.574 2.001.462 2.113-.112.112-1.029.039-2.036-.163-1.348-.27-1.997-.836-2.451-2.14-.34-.975-.486-1.988-.323-2.25.899-1.455 1.403-6.666.76-7.857-.38-.703-.635-2.143-.566-3.2.123-1.905.103-1.92-2.7-2.004-5.856-.176-7.004-.305-8.581-.971-.891-.376-2-.538-2.466-.36-.488.188-1.125-.195-1.503-.902-.761-1.422-2.388-1.649-2.388-.334 0 .492-.248 1.356-.552 1.92-1.927 3.585-2.395 12.29-.792 14.736l1.019 1.555-2.274-.37c-1.251-.202-2.418-.512-2.594-.688-.176-.176-.267-2.713-.203-5.638.065-2.926-.102-5.319-.37-5.319-.644 0-1.916 4.82-1.913 7.247.001 1.051.533 2.782 1.182 3.846.649 1.064 1.18 2.06 1.18 2.216s-1.043.28-2.317.28c-2.893 0-2.89.014-3.322-12.911-.234-7.031-.557-10.02-1.185-10.98-.658-1.004-.786-2.495-.54-6.285.177-2.733.577-5.224.889-5.536 1.048-1.048.57-2.39-1.21-3.404-1.982-1.128-2.633-3.902-.735-3.131 2.737 1.112 4.686 1.418 7.462 1.17 2.746-.244 4.224.044 7.752 1.51 2.61 1.084 10.201 1.865 10.675 1.098.162-.261.657-.336 1.101-.165.445.17.984.026 1.198-.322.215-.347 1.023-.63 1.797-.63.775 0 1.572-.267 1.773-.592.2-.324 1.278-.59 2.393-.59 1.516 0 2.493-.485 3.871-1.92 1.014-1.057 2.08-2.453 2.368-3.103.288-.65.828-1.604 1.2-2.121.54-.749.36-1.408-.884-3.24-3.13-4.605-1.071-6.059 2.869-2.024 2.725 2.79 4.407 2.996 7.472.913 2.366-1.607 3.02-1.434 2.496.66-.193.768-.092 1.725.225 2.127.317.402.745 3.824.951 7.605.353 6.466.307 6.892-.768 7.173-.628.164-1.854-.071-2.725-.523-.87-.451-2.183-.82-2.918-.82-1.287 0-1.792 1.018-2.343 4.726-.988 6.641-1.844 9.632-3.12 10.908-1.275 1.276-1.383 1.762-1.057 4.78.2 1.849.04 5.28-.354 7.627-.634 3.774-.603 4.43.269 5.674 1.254 1.79 1.295 4.099.073 4.099-.503 0-1.566-.653-2.364-1.45z" fill="#272a34"/><path d="M87.06 61.565c-.439.555-.1 2.006 1.343 4.13.445.656.75 1.157.938 1.57.47-.717.261-1.393-.938-3.158-.684-1.006-1.12-1.861-1.343-2.542zm14.187 2.056-.008.033a3.455 3.455 0 0 0-.004 1.606l.004-.018c.217-.866.232-1.403.008-1.621zM46.865 74.517c-.756.34-.024 2.307 1.568 3.213.748.425 1.262.91 1.534 1.406.581-.972.021-2.109-1.534-2.994a4.107 4.107 0 0 1-1.568-1.625zm55.734 4.372c-.065 1.307-.344 1.512-.95 1.67-.628.165-1.854-.07-2.725-.522-.87-.451-2.184-.821-2.918-.821-1.287 0-1.791 1.018-2.343 4.727-.988 6.64-1.844 9.632-3.12 10.908-1.076 1.077-1.316 1.608-1.17 3.557.113-.793.46-1.26 1.17-1.97 1.276-1.275 2.132-4.267 3.12-10.908.552-3.708 1.056-4.727 2.343-4.727.734 0 2.048.37 2.918.822.87.451 2.097.686 2.725.522.795-.208 1.025-.51.95-3.258zm-53.943 9.813c-.069 2.326.115 3.454.639 4.253.628.958.95 3.948 1.185 10.979.432 12.924.429 12.91 3.322 12.91 1.274 0 2.317-.126 2.317-.28 0-.113-.287-.68-.692-1.388-.42.05-.993.081-1.625.081-2.893 0-2.89.013-3.322-12.911-.235-7.03-.557-10.02-1.185-10.978-.388-.592-.587-1.367-.639-2.666zm13.505 5.9c-.414.015-.725.295-.725.87 0 .492-.249 1.356-.552 1.92-1.226 2.281-1.859 6.63-1.746 10.126.089-3.142.7-6.593 1.746-8.538.303-.564.552-1.428.552-1.92 0-1.316 1.627-1.089 2.388.333.379.708 1.015 1.09 1.503.903.465-.179 1.575-.017 2.466.359 1.576.666 2.724.796 8.58.971 1.924.058 2.537.083 2.693.71 0-.1.001-.199.008-.293.123-1.905.102-1.92-2.701-2.005-5.856-.175-7.003-.305-8.58-.97-.891-.377-2-.538-2.466-.36-.488.187-1.124-.195-1.503-.902-.428-.8-1.13-1.222-1.662-1.203zm16.94 6.516c-.006.157-.015.319-.028.513-.068 1.056.187 2.496.567 3.2.143.265.227.737.264 1.317.066-1.282-.004-2.423-.264-2.905-.261-.483-.46-1.311-.538-2.125zm-23.432.55c-.643 0-1.915 4.82-1.912 7.246 0 .185.022.395.053.614.244-2.55 1.294-6.272 1.86-6.272.2 0 .344 1.335.377 3.228.035-2.688-.125-4.816-.378-4.816zm33.89.79c-.04 1.61-.19 3.397-.426 4.8-.383 2.28-.521 3.42-.38 4.24.065-.674.188-1.508.38-2.652.318-1.894.48-4.482.427-6.387zm-5.222 2.59c-.323-.02-.546.793-1.014 3-.396 1.864-.53 3.07-.414 4.112.063-.702.2-1.516.414-2.525.68-3.21.843-3.47 1.55-2.505.46.631.788 2.634.788 4.833 0 3.198.215 3.969 1.45 5.204.798.798 1.861 1.45 2.363 1.45.805 0 1.059-1 .783-2.195-.135.375-.395.608-.783.608-.502 0-1.565-.652-2.363-1.45-1.235-1.235-1.45-2.006-1.45-5.205 0-2.198-.327-4.201-.789-4.833-.22-.301-.388-.484-.535-.493zm-28.312 4.49c-.028 2.498.061 4.518.218 4.674.176.176 1.343.486 2.594.69l2.273.368-1.019-1.555a2.877 2.877 0 0 1-.127-.218l-1.127-.183c-1.25-.203-2.418-.513-2.594-.69-.121-.12-.2-1.372-.218-3.086zm22.938 2.987c-.028.054-.055.115-.084.162-.162.263-.016 1.275.324 2.25.454 1.304 1.103 1.871 2.45 2.14 1.008.202 1.924.275 2.036.163.09-.09-.034-.738-.277-1.537-.366.009-1.036-.068-1.759-.213-1.347-.27-1.996-.836-2.45-2.14a8.301 8.301 0 0 1-.24-.825z" fill="#fff" opacity=".2"/><path d="M33.448 19.73c.375-.023 2.704 3.346 5.293 7.671 6.065 10.131 14.524 33.8 16.25 45.462.711 4.816-.066 26.388.898 15.793.547-6.01 5.006 26.097 3.365 31.908-.876 3.104-1.21 2.543-2.196-3.68-.27-4.499-1.122-15.528-3.432-25.098-3.264-13.52-7.842-24.925-3.958-17.814 6.601 12.086-6.419-31.206-6.562-22.187-.056 3.523-1.954-6.589-2.933-9.574-3.97-12.106-7.01-22.217-6.755-22.469a.054.054 0 0 1 .03-.015zm13.567.394c.364.048 1.324 1.15 2.788 2.833 2.197 2.526 8.792 15.675 7.106 11.02-7.363-20.328 5.222 11.046 5.978 14.724.581 2.827 1.578 5.803 2.215 6.613 1.595 2.03 13.103 51.401 5.64 25.524-4.241-14.706 4.46 32.947 3.46 36.485-1.332 4.716-.986 6.052-6.937-26.788 7.87 20.21-10.222-62.096-7.153-31.846.884 8.711-4.986-16.277-8.02-23.983-4.294-10.912-5.772-14.67-5.077-14.58zm-23.512 5.24c1.531.104 7.094 15.279 8.63 11.09 1.487-4.055 2.163 11.645 2.152 13.707-.013 2.305 1.217 8.337 2.733 13.405 7.046 23.554 9.37 34.953 9.811 48.116.257 7.659.026 13.48-.512 12.937-.538-.545-2.452-7.81-4.253-16.147-.878-4.064-9.325-15.035-5.91-11.178 11.887 13.429 1.3-12.076-.586-17.2-.512-8.588-10.313-27.88-7.183-23.196 7.031 10.52-5.628-30.984-5.192-31.416a.385.385 0 0 1 .31-.116z" fill="#087142"/><path d="M35.035 18.14c.375-.023 2.704 3.346 5.293 7.671 6.065 10.131 14.524 33.8 16.25 45.462.711 4.816-.066 26.388.898 15.793.547-6.01 5.006 26.097 3.365 31.908-.876 3.104-1.21 2.543-2.196-3.68-.27-4.499-1.122-15.528-3.432-25.098-3.264-13.52-7.842-24.925-3.958-17.814 6.601 12.086-6.419-31.206-6.562-22.187-.056 3.523-1.954-6.589-2.933-9.574-3.97-12.106-7.01-22.217-6.755-22.469a.054.054 0 0 1 .03-.015zm13.567.394c.364.048 1.324 1.15 2.788 2.833 2.197 2.526 8.792 15.675 7.106 11.02-7.363-20.328 5.222 11.046 5.978 14.724.581 2.827 1.578 5.803 2.215 6.613 1.595 2.03 13.103 51.401 5.64 25.524-4.241-14.706 4.46 32.947 3.46 36.485-1.332 4.716-.986 6.052-6.937-26.788C76.722 109.155 58.63 26.85 61.7 57.1c.884 8.711-4.986-16.277-8.02-23.983-4.294-10.912-5.772-14.67-5.077-14.58zm-23.512 5.24c1.531.104 7.094 15.279 8.63 11.09 1.487-4.055 2.163 11.645 2.152 13.707-.013 2.305 1.217 8.337 2.733 13.405 7.046 23.554 9.37 34.953 9.811 48.116.257 7.659.026 13.48-.512 12.937-.538-.545-2.452-7.81-4.253-16.147-.878-4.064-9.325-15.035-5.91-11.178 11.887 13.429 1.3-12.076-.586-17.2-.512-8.588-10.313-27.88-7.183-23.196 7.031 10.52-5.628-30.984-5.192-31.416a.385.385 0 0 1 .31-.116z" fill="#0ca15e"/></svg>