<svg viewBox="0 0 512 512" xmlns="http://www.w3.org/2000/svg"><defs><linearGradient id="a" x1="-1221.5" x2="-1690.3" y1="-381.81" y2="93.888" gradientTransform="translate(1775.7 374.92)" gradientUnits="userSpaceOnUse"><stop stop-color="#fd4949" offset="0"/><stop stop-color="#fd7d00" offset=".6"/><stop stop-color="#f8de68" offset="1"/></linearGradient></defs><circle cx="256" cy="256" r="225" fill="url(#a)" style="paint-order:stroke fill markers"/><ellipse cx="180.41" cy="323.47" rx="17.858" ry="19.612" opacity=".3" style="paint-order:stroke fill markers"/><g color="#000"><path d="M181.01 192.06c-12.641 0-25.968 3.634-37.1 9.779-2.881 1.59-4.24 4.955-3.26 8.066l3.235 10.244c1.28 4.058 5.94 6.016 9.791 4.117 8.386-4.138 16.558-6.158 23.762-6.158 5.968 0 10.037 1.425 12.291 3.122 2.254 1.697 3.184 3.449 3.184 6.61 0 5.49-4.355 9.79-11.011 16.706-6.656 6.916-14.852 16.54-14.852 30.99v8.899c0 3.807 3.127 6.894 6.985 6.894h12.93c3.858 0 6.985-3.087 6.986-6.894v-8.9c0-5.758 4.74-10.553 11.747-17.748s15.648-16.928 15.648-31.458c0-10.058-4.322-19.128-11.664-25.158-7.343-6.03-17.35-9.11-28.671-9.11zM382.43 210.09c-3.786.108-6.804 3.508-6.805 7.667v15.51c0 2.91 1.497 5.568 3.867 6.867l48.64 26.634-48.543 25.549c-2.423 1.276-3.965 3.966-3.965 6.918v14.576c0 5.689 5.442 9.398 10.085 6.874l75.889-41.3c2.379-1.295 3.883-3.959 3.883-6.874v-11.96c0-2.875-1.465-5.51-3.794-6.823L385.8 210.933a6.476 6.476 0 0 0-3.37-.844zM126.46 211.02a6.497 6.497 0 0 0-2.989.845l-73.166 41.3c-2.327 1.315-3.79 3.948-3.79 6.822v11.961c0 2.835 1.423 5.438 3.701 6.77l73.166 42.794c4.653 2.72 10.267-.982 10.268-6.77v-15.51c0-2.862-1.45-5.486-3.762-6.807l-46.725-26.696 46.625-25.603c2.367-1.3 3.862-3.956 3.862-6.862v-14.576c0-4.325-3.254-7.794-7.19-7.667zM236.95 210.92c-4.85 0-8.224 5.557-6.561 10.806l29.948 94.476c1.006 3.175 3.627 5.287 6.561 5.287h12.931c3.036 0 5.725-2.26 6.652-5.59l14.747-53.006 15.364 53.094c.95 3.286 3.62 5.502 6.627 5.503h13.783c2.962 0 5.601-2.153 6.586-5.37l28.928-94.477c1.602-5.235-1.77-10.722-6.588-10.722h-13.611c-3.04 0-5.732 2.265-6.656 5.601l-14.749 53.26-14.474-52.845c-.918-3.348-3.614-5.624-6.661-5.624h-15.315c-3.068.001-5.776 2.307-6.676 5.685l-14.03 52.624-14.665-53.094c-.922-3.34-3.614-5.607-6.656-5.607z" opacity=".3" style="font-feature-settings:normal;font-variant-alternates:normal;font-variant-caps:normal;font-variant-ligatures:normal;font-variant-numeric:normal;font-variant-position:normal;isolation:auto;mix-blend-mode:normal;shape-padding:0;text-decoration-color:#000;text-decoration-line:none;text-decoration-style:solid;text-indent:0;text-orientation:mixed;text-transform:none;white-space:normal"/></g><g fill="#191919"><g color="#000"><path d="M181.01 182.42c-12.641 0-25.968 3.634-37.1 9.779-2.881 1.59-4.24 4.955-3.26 8.066l3.235 10.244c1.28 4.058 5.94 6.016 9.791 4.117 8.386-4.139 16.558-6.158 23.762-6.158 5.968 0 10.037 1.425 12.291 3.122 2.254 1.697 3.184 3.449 3.184 6.61 0 5.49-4.355 9.79-11.011 16.706-6.656 6.915-14.852 16.54-14.852 30.99v8.899c0 3.807 3.127 6.893 6.985 6.894h12.93c3.858 0 6.985-3.087 6.986-6.894v-8.9c0-5.758 4.74-10.553 11.747-17.748s15.648-16.928 15.648-31.458c0-10.058-4.322-19.128-11.664-25.158-7.343-6.03-17.35-9.11-28.671-9.11zM382.43 199.37c-3.786.108-6.804 3.508-6.805 7.667v15.51c0 2.91 1.497 5.568 3.867 6.867l48.64 26.634-48.543 25.549c-2.423 1.276-3.965 3.966-3.965 6.918v14.576c0 5.689 5.442 9.398 10.085 6.874l75.889-41.3c2.379-1.295 3.883-3.959 3.883-6.874v-11.96c0-2.875-1.465-5.51-3.794-6.824L385.8 200.212a6.476 6.476 0 0 0-3.37-.843zM126.46 200.3a6.497 6.497 0 0 0-2.989.845l-73.166 41.3c-2.327 1.315-3.79 3.948-3.79 6.822v11.961c0 2.835 1.423 5.438 3.701 6.77l73.166 42.794c4.653 2.72 10.267-.982 10.268-6.77v-15.51c0-2.862-1.45-5.486-3.762-6.807l-46.725-26.696 46.625-25.603c2.367-1.3 3.862-3.956 3.862-6.862v-14.576c0-4.325-3.254-7.795-7.19-7.668zM236.95 199.67c-4.85 0-8.224 5.557-6.561 10.806l29.948 94.476c1.006 3.175 3.627 5.287 6.561 5.287h12.931c3.036 0 5.725-2.26 6.652-5.59l14.747-53.006 15.364 53.094c.95 3.286 3.62 5.502 6.627 5.503h13.783c2.962 0 5.601-2.153 6.586-5.37l28.928-94.477c1.602-5.235-1.77-10.722-6.588-10.722h-13.611c-3.04 0-5.732 2.265-6.656 5.601l-14.749 53.26-14.474-52.845c-.918-3.348-3.614-5.624-6.661-5.624h-15.315c-3.068.001-5.776 2.307-6.676 5.685l-14.03 52.624-14.665-53.094c-.922-3.34-3.614-5.607-6.656-5.607z" style="font-feature-settings:normal;font-variant-alternates:normal;font-variant-caps:normal;font-variant-ligatures:normal;font-variant-numeric:normal;font-variant-position:normal;isolation:auto;mix-blend-mode:normal;shape-padding:0;text-decoration-color:#000;text-decoration-line:none;text-decoration-style:solid;text-indent:0;text-orientation:mixed;text-transform:none;white-space:normal"/></g><ellipse cx="180.41" cy="313.36" rx="17.858" ry="19.612" style="paint-order:stroke fill markers"/></g><path d="M480.79 250.15A225 225 0 0 1 256 471 225 225 0 0 1 31.21 251.85a225 225 0 0 0-.207 4.146 225 225 0 0 0 225 225 225 225 0 0 0 225-225 225 225 0 0 0-.207-5.853z" opacity=".3" style="paint-order:stroke fill markers"/><path d="M256 31A225 225 0 0 0 31 256a225 225 0 0 0 .207 5.854 225 225 0 0 1 224.79-220.85 225 225 0 0 1 224.79 219.15 225 225 0 0 0 .207-4.147 225 225 0 0 0-225-225z" fill="#fff" opacity=".2" style="paint-order:stroke fill markers"/></svg>