<?xml version="1.0" encoding="UTF-8"?>
<!DOCTYPE svg PUBLIC "-//W3C//DTD SVG 1.1//EN" "http://www.w3.org/Graphics/SVG/1.1/DTD/svg11.dtd">
<svg xmlns="http://www.w3.org/2000/svg" version="1.1" width="300px" height="300px" style="shape-rendering:geometricPrecision; text-rendering:geometricPrecision; image-rendering:optimizeQuality; fill-rule:evenodd; clip-rule:evenodd" xmlns:xlink="http://www.w3.org/1999/xlink">
<g><path style="opacity:0.961" fill="#050608" d="M 139.5,34.5 C 140.272,38.5977 142.272,41.931 145.5,44.5C 149.095,51.3624 153.428,57.6957 158.5,63.5C 166.892,75.228 174.892,87.228 182.5,99.5C 182.722,106.623 179.389,111.29 172.5,113.5C 183.858,127.69 195.024,142.024 206,156.5C 207.581,162.062 206.081,166.562 201.5,170C 198.67,170.869 196.003,172.036 193.5,173.5C 196.509,177.836 199.843,181.836 203.5,185.5C 208.833,192.5 214.167,199.5 219.5,206.5C 223.5,211.5 227.5,216.5 231.5,221.5C 233.548,224.215 235.882,226.548 238.5,228.5C 240.325,230.803 242.158,233.136 244,235.5C 249.139,248.695 244.639,254.862 230.5,254C 226.845,251.173 222.845,249.007 218.5,247.5C 216.23,245.025 213.563,243.025 210.5,241.5C 204.127,237.313 197.461,233.647 190.5,230.5C 186.005,226.749 181.005,223.749 175.5,221.5C 150.102,206.292 124.435,191.292 98.5,176.5C 94.5302,170.966 94.5302,165.466 98.5,160C 100.5,159 102.5,158 104.5,157C 95.98,150.578 87.3133,144.412 78.5,138.5C 74.4474,135.117 70.1141,132.117 65.5,129.5C 63.8729,127.37 62.0396,125.37 60,123.5C 57.3409,117.62 58.5075,112.62 63.5,108.5C 61.7339,105.792 59.4006,103.792 56.5,102.5C 54.0246,99.7589 51.0246,97.7589 47.5,96.5C 37.1466,91.0712 27.98,84.0712 20,75.5C 18.228,69.5326 19.728,64.6993 24.5,61C 55.5967,46.7472 86.93,33.0805 118.5,20C 121.928,19.2989 125.262,19.6323 128.5,21C 132.409,25.3986 136.076,29.8986 139.5,34.5 Z"/></g>
<g><path style="opacity:1" fill="#fcfcfc" d="M 120.5,29.5 C 122.91,29.9209 124.743,31.2542 126,33.5C 142.08,55.9919 157.913,78.6586 173.5,101.5C 168.254,104.359 162.921,107.025 157.5,109.5C 171.418,125.913 184.752,142.746 197.5,160C 197.355,160.772 197.022,161.439 196.5,162C 190.565,163.817 184.565,165.317 178.5,166.5C 178.954,169.14 180.121,171.473 182,173.5C 200,196.167 218,218.833 236,241.5C 236.781,242.944 236.614,244.277 235.5,245.5C 192.459,220.649 149.459,195.816 106.5,171C 104.963,169.89 104.297,168.39 104.5,166.5C 110.021,165.076 115.354,163.076 120.5,160.5C 121.583,159.635 121.749,158.635 121,157.5C 103.081,145.414 85.5806,132.747 68.5,119.5C 67.1667,118.5 67.1667,117.5 68.5,116.5C 72.9576,114.977 77.2909,113.31 81.5,111.5C 81.67,110.178 81.3366,109.011 80.5,108C 62.7243,96.0491 45.3909,83.5491 28.5,70.5C 59.0141,56.2378 89.6808,42.5712 120.5,29.5 Z"/></g>
<g><path style="opacity:1" fill="#035fa8" d="M 139.5,34.5 C 196.039,32.8388 236.206,57.5055 260,108.5C 275.562,152.808 268.396,192.808 238.5,228.5C 235.882,226.548 233.548,224.215 231.5,221.5C 241.129,212.421 247.962,201.755 252,189.5C 262.402,156.789 259.735,125.456 244,95.5C 221.614,61.9179 190.781,44.5845 151.5,43.5C 149.304,43.5046 147.304,43.838 145.5,44.5C 142.272,41.931 140.272,38.5977 139.5,34.5 Z"/></g>
<g><path style="opacity:1" fill="#0d64af" d="M 231.5,221.5 C 227.5,216.5 223.5,211.5 219.5,206.5C 221.868,204.157 224.035,201.491 226,198.5C 242.114,172.291 244.447,144.958 233,116.5C 217.508,85.0593 192.674,67.3926 158.5,63.5C 153.428,57.6957 149.095,51.3624 145.5,44.5C 147.304,43.838 149.304,43.5046 151.5,43.5C 190.781,44.5845 221.614,61.9179 244,95.5C 259.735,125.456 262.402,156.789 252,189.5C 247.962,201.755 241.129,212.421 231.5,221.5 Z"/></g>
<g><path style="opacity:1" fill="#1c69b3" d="M 219.5,206.5 C 214.167,199.5 208.833,192.5 203.5,185.5C 217.608,160.758 216.442,136.758 200,113.5C 196.5,110 193,106.5 189.5,103C 187.473,101.121 185.14,99.954 182.5,99.5C 174.892,87.228 166.892,75.228 158.5,63.5C 192.674,67.3926 217.508,85.0593 233,116.5C 244.447,144.958 242.114,172.291 226,198.5C 224.035,201.491 221.868,204.157 219.5,206.5 Z"/></g>
<g><path style="opacity:1" fill="#035fa8" d="M 47.5,96.5 C 51.0246,97.7589 54.0246,99.7589 56.5,102.5C 55.325,102.281 54.325,102.614 53.5,103.5C 36.8275,141.758 39.6608,178.425 62,213.5C 91.768,251.947 130.601,266.113 178.5,256C 190.102,252.977 200.769,248.144 210.5,241.5C 213.563,243.025 216.23,245.025 218.5,247.5C 182.256,271.098 143.922,274.932 103.5,259C 52.2949,232.436 29.4616,190.269 35,132.5C 37.2844,119.812 41.4511,107.812 47.5,96.5 Z"/></g>
<g><path style="opacity:1" fill="#0d64af" d="M 56.5,102.5 C 59.4006,103.792 61.7339,105.792 63.5,108.5C 58.5075,112.62 57.3409,117.62 60,123.5C 62.0396,125.37 63.8729,127.37 65.5,129.5C 63.6214,129.393 63.2881,129.893 64.5,131C 56.8535,167.035 67.5201,197.368 96.5,222C 121.694,240.81 149.36,245.477 179.5,236C 183.402,234.435 187.069,232.602 190.5,230.5C 197.461,233.647 204.127,237.313 210.5,241.5C 200.769,248.144 190.102,252.977 178.5,256C 130.601,266.113 91.768,251.947 62,213.5C 39.6608,178.425 36.8275,141.758 53.5,103.5C 54.325,102.614 55.325,102.281 56.5,102.5 Z"/></g>
<g><path style="opacity:1" fill="#326fb5" d="M 182.5,99.5 C 185.14,99.954 187.473,101.121 189.5,103C 193,106.5 196.5,110 200,113.5C 216.442,136.758 217.608,160.758 203.5,185.5C 199.843,181.836 196.509,177.836 193.5,173.5C 196.003,172.036 198.67,170.869 201.5,170C 206.081,166.562 207.581,162.062 206,156.5C 195.024,142.024 183.858,127.69 172.5,113.5C 179.389,111.29 182.722,106.623 182.5,99.5 Z"/></g>
<g><path style="opacity:1" fill="#1968b2" d="M 65.5,129.5 C 70.1141,132.117 74.4474,135.117 78.5,138.5C 72.0435,165.99 79.7102,189.823 101.5,210C 123.107,226.708 147.107,231.375 173.5,224C 174.756,223.583 175.423,222.75 175.5,221.5C 181.005,223.749 186.005,226.749 190.5,230.5C 187.069,232.602 183.402,234.435 179.5,236C 149.36,245.477 121.694,240.81 96.5,222C 67.5201,197.368 56.8535,167.035 64.5,131C 63.2881,129.893 63.6214,129.393 65.5,129.5 Z"/></g>
<g><path style="opacity:1" fill="#266cb4" d="M 78.5,138.5 C 87.3133,144.412 95.98,150.578 104.5,157C 102.5,158 100.5,159 98.5,160C 94.5302,165.466 94.5302,170.966 98.5,176.5C 124.435,191.292 150.102,206.292 175.5,221.5C 175.423,222.75 174.756,223.583 173.5,224C 147.107,231.375 123.107,226.708 101.5,210C 79.7102,189.823 72.0435,165.99 78.5,138.5 Z"/></g>
</svg>
